<svg id="Layer_1" data-name="Layer 1" xmlns="http://www.w3.org/2000/svg" viewBox="0 0 131.36 75.81"><defs><style>.cls-1{fill:#fff27b;stroke:#323232;stroke-miterlimit:10;stroke-width:0.5px;}</style></defs><path class="cls-1" d="M15.6,55.29c1.29-.94,1.45-1.6,1.45-6.64H29.63l-.2,13.9,6.21,1.8.55-.39L36,29.31H63.1v4.53c0,1.06-.35,1.49-1.4,1.49h-4c-10.82,0-13.63,5.39-13.63,10.43,0,4.57,2.73,8.32,5.47,10.9a16.25,16.25,0,0,0,19,2.81,5.59,5.59,0,0,1,1.84,4.06c0,2.42-2.07,4.69-5.43,6.8l6.56,5.23h.28c3-1.91,5-4.88,5-8.12,0-3.67-2.08-6.37-5.47-9.57,2.18-1.8,3.43-3.83,3.43-6.14a6.53,6.53,0,0,0-6.36-6.68c-3.09,0-5.55,1.88-5.55,5.12A5.92,5.92,0,0,0,64,53.77a11.41,11.41,0,0,1-6.64,1.91,6.23,6.23,0,0,1-6.52-6.6c0-4.22,3.4-7.74,13.67-7.74H69l.59-.82,0-11.21H81l-.15,33.21,6.29,1.83.54-.39-.15-34.65h29.76V38a85.05,85.05,0,0,0-11.52-.93c-10.27,0-10.86,5.19-10.86,6.21,0,1.64,1.09,3.67,3.28,6s4,3.44,5.35,3.44a3.4,3.4,0,0,0,3.4-4,35.65,35.65,0,0,0-.35-4.3,22.42,22.42,0,0,1,5.7-.59c1.84,0,3.21,0,5,.2l-.19,18.51,6.21,1.8.55-.39-.16-34.65h6.8l.54-.74-2.65-5.35H34.09c-1.26-7.57-2.51-11.87-4.7-15.74C26.58,2.48,24.28.25,19,.25a30.59,30.59,0,0,0-6.29.66l2,6.8.35.2a25.07,25.07,0,0,1,5.86-.75c4.18,0,6,1.25,7,4.18a47.28,47.28,0,0,1,1.37,5.51l-.2.16c-5.08-4.18-8.67-6-12.34-6-2.58,0-5.75,1.25-8.52,3l3.67,5.86.35.2c3.21-1.76,6.18-3,8.75-3,3.35,0,6.82,2.24,10.25,6.21H.84L.29,24,3,29.31h7.69v12.5C5.37,43,4.43,44.63,4.43,46.38c0,2,1.29,4.1,3.48,6.21,2.5,2.35,4.41,3.4,5.7,3.4A3.4,3.4,0,0,0,15.6,55.29Zm1.33-26H29.59V42H16.93Z"/></svg>